<svg version="1.2" xmlns="http://www.w3.org/2000/svg" viewBox="0 0 448 512" width="448" height="512"><style>.a{fill:#918e9b}</style><path fill-rule="evenodd" class="a" d="m448 80v352c0 26.5-21.5 48-48 48h-352c-26.5 0-48-21.5-48-48v-352c0-26.5 21.5-48 48-48h352c26.5 0 48 21.5 48 48zm-60 177.4c0-91.8-74.4-161.5-166.2-161.5-91.8 0-162 69.7-162 161.5 0 73.4 46.2 136.2 112.2 158.3 8.5 1.5 11.5-3.7 11.5-8 0-4.1-0.2-26.7-0.2-40.6 0 0-46.4 10-56.1-19.7 0 0-7.6-19.2-18.4-24.2 0 0-15.1-10.4 1.1-10.2 0 0 16.4 1.3 25.5 17.1 14.5 25.6 38.8 18.2 48.3 13.9 1.5-10.6 5.8-18 10.6-22.3-37-4.1-74.3-9.5-74.3-73.1 0-18.2 5-27.3 15.6-39-1.8-4.4-7.4-22.1 1.7-45 13.9-4.3 45.7 17.9 45.7 17.9 13.2-3.7 27.5-5.6 41.6-5.6 14.1 0 28.4 1.9 41.6 5.6 0 0 31.8-22.2 45.7-17.9 9.1 23 3.4 40.7 1.7 45 10.6 11.7 17.1 20.8 17.1 39 0 63.9-39 69-76 73.1 6.1 5.2 11.3 15.1 11.3 30.7 0 22.3-0.2 49.9-0.2 55.3 0 4.3 3.1 9.5 11.5 8 66-22 110.8-84.9 110.7-158.3zm-205.8 94.2c-0.2-1.3-2-2.1-3.9-1.9-1.9 0.4-3.2 1.7-3 3.2 0.2 1.3 2 2.1 3.9 1.7 2-0.4 3.3-1.7 3-3zm-16.2-0.3c-2 0-3.5 1.1-3.5 2.4 0 1.5 1.5 2.6 3.7 2.4 2 0 3.5-1.1 3.5-2.4 0-1.5-1.8-2.6-3.7-2.4zm-12.8-2.1c-1.7-0.4-3.7 0.2-4.1 1.5-0.4 1.3 0.9 2.8 2.8 3.2 1.7 0.6 3.7 0 4.1-1.3 0.5-1.3-0.8-2.8-2.8-3.4zm-10.4-6.1c-1.5-1.5-3.4-1.7-4.3-0.6-1 0.9-0.6 2.8 0.9 4.1 1.5 1.5 3.4 1.7 4.3 0.6 0.9-0.8 0.4-2.8-0.9-4.1zm-8.2-9.1c-0.9-1.5-2.6-2.2-3.7-1.3-1.1 0.7-1.1 2.4 0 3.9 1.1 1.5 2.8 2.1 3.7 1.5 1.1-0.8 1.1-2.6 0-4.1zm-6.9-9.1c-1.1-1-2.6-1.5-3.5-0.6-0.9 0.7-0.7 2.2 0.4 3.5 1.1 1 2.6 1.5 3.5 0.6 0.9-0.7 0.7-2.2-0.4-3.5zm-7.8-6.5c-1.3-0.5-2.4-0.2-2.8 0.4-0.4 0.9 0.2 2 1.5 2.6 1.1 0.7 2.4 0.5 2.8-0.4 0.4-0.8-0.2-1.9-1.5-2.6z"/></svg>