<svg version="1.2" xmlns="http://www.w3.org/2000/svg" viewBox="0 0 448 512" width="448" height="512"><style>.a{fill:#918e9b}</style><path fill-rule="evenodd" class="a" d="m418.4 35.7c5.8 2.4 11.1 5.9 15.5 10.4 4.5 4.4 8 9.7 10.4 15.5 2.5 5.9 3.7 12.1 3.7 18.4v352c0 6.3-1.2 12.5-3.7 18.4-2.4 5.8-5.9 11.1-10.4 15.5-4.4 4.5-9.7 8-15.5 10.4-5.9 2.5-12.1 3.7-18.4 3.7h-352c-6.3 0-12.5-1.2-18.4-3.7-5.8-2.4-11.1-5.9-15.5-10.4-4.5-4.4-8-9.7-10.4-15.5-2.5-5.9-3.7-12.1-3.7-18.4v-352c0-6.3 1.2-12.5 3.7-18.4 2.4-5.8 5.9-11.1 10.4-15.5 4.4-4.5 9.7-8 15.5-10.4 5.9-2.5 12.1-3.7 18.4-3.7h352c6.3 0 12.5 1.2 18.4 3.7zm-35.5 154.4c-1.2-25.6-7.2-48.3-25.9-67-18.6-18.7-41.3-24.6-67-25.9-26.4-1.5-105.6-1.5-132 0-25.5 1.2-48.2 7.1-67 25.8-18.8 18.7-24.5 41.4-25.8 67-1.5 26.4-1.5 105.6 0 132 1.2 25.6 7.1 48.3 25.8 67 18.8 18.7 41.4 24.6 67 25.9 26.4 1.4 105.6 1.4 132 0 25.6-1.3 48.3-7.2 67-25.9 18.7-18.7 24.6-41.4 25.9-67 1.5-26.4 1.5-105.6 0-131.9zm-34.1-28.4c8.3 21 6.4 71 6.4 94.3 0 23.3 1.9 73.3-6.4 94.3q-2.1 5.2-5.1 9.8-3.1 4.7-7 8.6-3.9 3.9-8.6 7-4.6 3-9.8 5c-21 8.4-70.9 6.5-94.3 6.5-23.3 0-73.3 1.8-94.3-6.5q-5.1-2-9.8-5-4.6-3.1-8.5-7-4-3.9-7-8.6-3-4.6-5.1-9.8c-8.3-21-6.5-71-6.5-94.3 0-23.3-1.8-73.3 6.5-94.3q2-5.2 5.1-9.8 3-4.7 6.9-8.6 4-3.9 8.6-7 4.6-3 9.8-5c21-8.4 71-6.5 94.3-6.5 23.3 0 73.3-1.8 94.3 6.5q5.2 2 9.8 5 4.6 3.1 8.6 7 3.9 3.9 6.9 8.6 3.1 4.6 5.1 9.8zm-39.3 28c2.5 0 5-0.5 7.3-1.4 2.3-1 4.4-2.4 6.2-4.2 1.8-1.8 3.2-3.9 4.1-6.2 1-2.3 1.5-4.8 1.5-7.3 0-7.8-4.7-14.8-11.8-17.7-7.2-3-15.4-1.4-20.9 4.1-5.5 5.5-7.1 13.7-4.2 20.9 3 7.1 10 11.8 17.7 11.8zm-54 142c10-4.1 19-10.1 26.6-17.7 7.6-7.7 13.7-16.7 17.8-26.7 4.1-9.9 6.2-20.6 6.2-31.4 0-33.1-20-63-50.6-75.7-30.6-12.7-65.9-5.7-89.4 17.8-23.4 23.4-30.4 58.7-17.7 89.3 12.7 30.7 42.6 50.6 75.7 50.6 10.8 0.1 21.5-2 31.4-6.2zm-11-125c6.5 2.7 12.4 6.6 17.3 11.5 5 5 8.9 10.9 11.6 17.3 2.7 6.5 4.1 13.4 4.1 20.4 0 21.6-13 41.1-32.9 49.3-20 8.3-42.9 3.7-58.2-11.5-15.2-15.3-19.8-38.2-11.5-58.1 8.2-20 27.6-33 49.2-33 7 0 14 1.4 20.4 4.1z"/></svg>